# 3ds Max Wavefront OBJ Exporter v0.97b - (c)2007 guruware
# File Created: 11.04.2017 19:07:46

mtllib hand.mtl

#
# object hand_right
#

v  0.0136 0.0246 0.0892
v  0.0162 -0.0022 0.1141
v  -0.0001 0.0201 0.0900
v  -0.0106 0.0098 0.0902
v  -0.0144 -0.0127 0.0895
v  0.0001 -0.0298 0.0876
v  0.0227 -0.0324 0.0858
v  0.0397 -0.0197 0.0852
v  0.0465 0.0000 0.0856
v  0.0394 0.0144 0.0868
v  0.0278 0.0227 0.0881
v  0.0048 -0.0218 -0.0386
v  0.0038 -0.0277 -0.0372
v  0.0040 -0.0259 -0.0282
v  0.0132 -0.0182 0.1257
v  0.0086 -0.0145 0.1256
v  0.0080 -0.0124 0.0941
v  0.0123 -0.0190 0.0956
v  0.0203 -0.0199 0.0962
v  0.0203 -0.0179 0.1261
v  0.0084 -0.0119 0.0627
v  0.0109 -0.0206 0.0651
v  0.0101 0.0215 -0.0440
v  0.0236 0.0236 -0.0406
v  0.0253 0.0159 -0.0404
v  0.0081 0.0160 -0.0427
v  0.0050 -0.0012 0.0605
v  0.0118 -0.0014 0.0942
v  0.0078 -0.0024 0.1259
v  0.0127 0.0024 0.1264
v  0.0140 0.0073 0.0936
v  0.0064 0.0180 0.0572
v  0.0138 0.0190 0.0655
v  0.0011 0.0262 0.0124
v  0.0041 0.0046 0.0124
v  0.0114 0.0358 0.0396
v  0.0012 0.0352 0.0355
v  0.0196 -0.0093 -0.0423
v  0.0067 -0.0101 -0.0414
v  0.0091 -0.0023 -0.0407
v  0.0229 -0.0034 -0.0414
v  0.0083 -0.0154 0.0180
v  0.0094 -0.0261 0.0214
v  0.0244 0.0156 0.0559
v  0.0244 0.0343 0.0270
v  0.0248 -0.0133 0.1264
v  0.0256 -0.0147 0.0963
v  0.0274 -0.0073 0.0959
v  0.0265 -0.0076 0.1268
v  0.0205 -0.0233 0.0657
v  0.0269 -0.0166 0.0644
v  0.0199 -0.0291 0.0213
v  0.0265 -0.0198 0.0191
v  0.0208 0.0082 0.0922
v  0.0239 -0.0006 0.1268
v  0.0260 0.0010 0.0948
v  0.0193 0.0024 0.1267
v  0.0294 -0.0079 0.0637
v  0.0260 0.0312 0.0033
v  0.0324 0.0155 0.0113
v  0.0298 0.0023 0.0616
v  0.0297 -0.0104 0.0178
v  0.0311 0.0011 0.0149
v  0.0054 -0.0380 -0.0274
v  0.0113 -0.0392 -0.0347
v  0.0084 -0.0024 -0.0270
v  0.0191 -0.0220 -0.0401
v  0.0212 -0.0156 -0.0437
v  0.0085 0.0266 -0.0374
v  0.0221 0.0328 -0.0412
v  0.0149 0.0365 -0.0378
v  0.0088 0.0354 -0.0065
v  0.0136 -0.0286 -0.0373
v  0.0002 0.0756 -0.0386
v  -0.0028 0.0689 -0.0369
v  -0.0109 0.0728 -0.0367
v  -0.0092 0.0754 -0.0391
v  0.0031 0.0731 -0.0358
v  -0.0009 0.0806 -0.0370
v  0.0009 0.0799 -0.0343
v  -0.0044 0.0820 -0.0368
v  -0.0037 0.0818 -0.0336
v  -0.0084 0.0801 -0.0339
v  -0.0078 0.0809 -0.0373
v  -0.0370 -0.0384 -0.0604
v  -0.0351 -0.0337 -0.0557
v  -0.0097 -0.0305 -0.0594
v  -0.0069 -0.0350 -0.0640
v  -0.0352 -0.0453 -0.0586
v  -0.0072 -0.0438 -0.0616
v  -0.0316 -0.0446 -0.0519
v  -0.0109 -0.0431 -0.0527
v  -0.0312 -0.0368 -0.0498
v  -0.0121 -0.0326 -0.0520
v  -0.0447 -0.0201 -0.0687
v  -0.0404 -0.0138 -0.0645
v  -0.0094 -0.0116 -0.0725
v  -0.0083 -0.0181 -0.0777
v  -0.0406 -0.0278 -0.0671
v  -0.0064 -0.0250 -0.0724
v  -0.0082 -0.0234 -0.0635
v  -0.0334 -0.0259 -0.0614
v  -0.0098 -0.0128 -0.0648
v  -0.0337 -0.0167 -0.0600
v  -0.0422 0.0060 -0.0778
v  -0.0375 0.0141 -0.0746
v  -0.0045 0.0137 -0.0772
v  -0.0038 0.0051 -0.0823
v  -0.0383 -0.0019 -0.0726
v  -0.0057 -0.0020 -0.0764
v  -0.0316 0.0012 -0.0666
v  -0.0062 0.0002 -0.0670
v  -0.0312 0.0111 -0.0679
v  -0.0054 0.0111 -0.0681
v  -0.0391 0.0357 -0.0684
v  -0.0334 0.0415 -0.0639
v  -0.0069 0.0390 -0.0692
v  -0.0044 0.0322 -0.0763
v  -0.0373 0.0267 -0.0663
v  -0.0056 0.0225 -0.0741
v  -0.0298 0.0262 -0.0598
v  -0.0079 0.0227 -0.0645
v  -0.0278 0.0357 -0.0587
v  -0.0092 0.0324 -0.0615
v  0.0187 0.0448 0.0016
v  0.0099 0.0408 -0.0035
v  -0.0002 0.0633 -0.0277
v  0.0060 0.0675 -0.0261
v  0.0181 0.0480 0.0146
v  0.0043 0.0730 -0.0227
v  -0.0067 0.0666 -0.0250
v  -0.0009 0.0419 0.0094
v  0.0262 0.0065 -0.0441
v  -0.0017 0.0477 0.0208
v  -0.0068 0.0726 -0.0215
v  0.0076 0.0499 0.0228
v  -0.0009 0.0767 -0.0201
v  -0.0500 -0.0406 -0.0461
v  -0.0465 -0.0358 -0.0416
v  -0.0471 -0.0467 -0.0453
v  -0.0419 -0.0455 -0.0405
v  -0.0421 -0.0389 -0.0376
v  -0.0550 -0.0219 -0.0563
v  -0.0516 -0.0155 -0.0522
v  -0.0514 -0.0287 -0.0545
v  -0.0454 -0.0271 -0.0492
v  -0.0452 -0.0187 -0.0474
v  -0.0555 0.0061 -0.0604
v  -0.0523 0.0132 -0.0579
v  -0.0525 -0.0008 -0.0571
v  -0.0465 0.0019 -0.0516
v  -0.0464 0.0107 -0.0521
v  -0.0488 0.0360 -0.0569
v  -0.0441 0.0416 -0.0525
v  -0.0467 0.0283 -0.0552
v  -0.0401 0.0275 -0.0495
v  -0.0383 0.0362 -0.0476
v  0.0078 0.0336 0.2041
v  -0.0120 0.0250 0.2074
v  -0.0235 0.0050 0.2083
v  -0.0234 -0.0235 0.2063
v  -0.0032 -0.0423 0.2015
v  0.0244 -0.0436 0.1967
v  0.0461 -0.0277 0.1937
v  0.0555 -0.0032 0.1931
v  0.0474 0.0182 0.1955
v  0.0299 0.0314 0.1996
# 167 vertices

vn -0.0909 0.4568 -0.8849
vn -0.0499 -0.0034 -0.9987
vn -0.2625 0.3956 -0.8801
vn -0.4538 0.2494 -0.8555
vn -0.5590 -0.1097 -0.8219
vn -0.2976 -0.4393 -0.8476
vn 0.1009 -0.4978 -0.8614
vn 0.3781 -0.2764 -0.8836
vn 0.5117 0.0743 -0.8559
vn 0.3180 0.3551 -0.8790
vn 0.1115 0.4631 -0.8793
vn -0.9393 -0.2899 -0.1834
vn -0.2058 0.8392 -0.5034
vn -0.9826 0.1146 0.1463
vn -0.3386 -0.9408 0.0179
vn -0.8950 -0.4399 -0.0732
vn -0.9861 -0.1571 0.0539
vn -0.5449 -0.8370 0.0500
vn 0.3309 -0.9407 0.0741
vn 0.4144 -0.9082 0.0583
vn -0.9598 -0.2801 0.0192
vn -0.7157 -0.6924 0.0912
vn -0.4615 -0.7266 -0.5089
vn 0.8476 0.0229 -0.5302
vn 0.8364 0.3116 -0.4510
vn -0.8973 0.4068 -0.1716
vn -0.9946 -0.0816 0.0635
vn -0.9572 0.2698 0.1045
vn -0.9268 0.3602 -0.1066
vn -0.4349 0.8987 0.0562
vn -0.6082 0.7647 0.2127
vn -0.8805 0.3674 0.2997
vn 0.0347 0.9016 0.4313
vn -0.9899 -0.1123 -0.0861
vn -0.9940 -0.1095 0.0000
vn 0.1269 0.7863 0.6047
vn -0.8284 0.3239 0.4571
vn 0.6742 0.3113 -0.6698
vn -0.8052 0.5817 -0.1152
vn -0.9249 -0.2696 -0.2681
vn 0.7598 -0.5025 -0.4125
vn -0.9881 -0.1390 0.0653
vn -0.7666 -0.6252 0.1465
vn 0.7966 0.5557 0.2380
vn 0.8554 0.4535 0.2503
vn 0.8694 -0.4927 0.0378
vn 0.8658 -0.4972 0.0575
vn 0.9972 -0.0276 0.0696
vn 0.9987 0.0397 0.0308
vn 0.2755 -0.9556 0.1045
vn 0.8728 -0.4848 0.0562
vn 0.3692 -0.9245 0.0950
vn 0.8892 -0.4563 -0.0333
vn 0.3980 0.9024 0.1648
vn 0.8078 0.5812 0.0983
vn 0.9086 0.4056 0.0995
vn 0.2822 0.9441 0.1705
vn 0.9873 -0.1535 0.0403
vn 0.8645 0.4831 -0.1387
vn 0.9872 0.1569 0.0297
vn 0.9729 0.2167 0.0813
vn 0.9724 -0.2288 -0.0455
vn 0.9963 -0.0832 -0.0195
vn -0.5447 -0.7627 0.3486
vn 0.6366 -0.7629 -0.1127
vn -0.9929 0.0931 -0.0737
vn 0.6886 -0.6488 -0.3240
vn 0.8935 -0.0833 -0.4413
vn -0.9760 0.1769 0.1272
vn 0.7697 0.5584 -0.3093
vn -0.0855 0.9948 0.0558
vn -0.4763 0.7561 -0.4489
vn 0.7097 -0.3328 -0.6209
vn 0.4276 0.0430 -0.9030
vn 0.0320 -0.6574 -0.7528
vn -0.8779 -0.3004 -0.3728
vn -0.4988 -0.0573 -0.8648
vn 0.8403 -0.1211 -0.5284
vn 0.4623 0.6705 -0.5803
vn 0.7280 0.6810 -0.0795
vn 0.0080 0.8759 -0.4824
vn 0.0266 0.9757 0.2173
vn -0.7572 0.6152 0.2195
vn -0.5228 0.6818 -0.5116
vn -0.4773 0.2041 -0.8547
vn -0.2547 0.9466 -0.1975
vn 0.0440 0.9225 -0.3835
vn 0.3638 0.2666 -0.8925
vn -0.2289 -0.7792 -0.5835
vn 0.3409 -0.7283 -0.5945
vn 0.2855 -0.8349 0.4706
vn -0.1288 -0.8450 0.5190
vn 0.2880 0.4860 0.8251
vn -0.4653 0.6520 0.5987
vn -0.5723 0.1496 -0.8063
vn -0.2211 0.9468 -0.2339
vn 0.1013 0.8791 -0.4658
vn 0.2557 0.0537 -0.9653
vn -0.2045 -0.8320 -0.5157
vn 0.3395 -0.8095 -0.4790
vn -0.2799 -0.7515 0.5974
vn 0.3557 -0.7372 0.5745
vn -0.2960 0.7722 0.5622
vn 0.3243 0.5148 0.7936
vn -0.5157 -0.0374 -0.8559
vn -0.1779 0.8814 -0.4375
vn 0.2154 0.8443 -0.4907
vn 0.3498 -0.0815 -0.9333
vn -0.1717 -0.9276 -0.3317
vn 0.1596 -0.9052 -0.3939
vn 0.3003 -0.6014 0.7404
vn -0.4078 -0.6740 0.6160
vn 0.2439 0.6884 0.6831
vn -0.4956 0.6612 0.5633
vn -0.5123 0.2654 -0.8168
vn 0.0099 0.9830 -0.1835
vn 0.1840 0.9641 -0.1915
vn 0.3518 0.2427 -0.9041
vn -0.4053 -0.7347 -0.5440
vn 0.1905 -0.7146 -0.6731
vn 0.1840 -0.8295 0.5273
vn -0.2162 -0.8989 0.3811
vn 0.4456 0.3989 0.8014
vn -0.2797 0.3295 0.9018
vn 0.8700 0.2376 -0.4320
vn -0.0050 -0.1450 -0.9894
vn 0.0067 -0.8081 -0.5890
vn 0.9015 -0.1161 -0.4169
vn 0.7409 0.6351 0.2185
vn 0.8162 0.5676 0.1082
vn -0.8813 -0.4622 -0.0983
vn -0.9511 -0.2386 -0.1963
vn 0.9127 -0.0758 -0.4015
vn -0.8218 0.4052 0.4005
vn -0.8817 0.3327 0.3345
vn 0.0911 0.8179 0.5682
vn 0.0473 0.8780 0.4763
vn -0.9954 0.0711 -0.0642
vn -0.5629 0.6936 0.4495
vn -0.6107 -0.7876 0.0820
vn 0.1127 -0.7008 0.7044
vn 0.0683 0.2161 0.9740
vn -0.9984 -0.0026 -0.0558
vn -0.6050 0.6969 0.3851
vn -0.5932 -0.7860 0.1744
vn 0.0667 -0.6176 0.7836
vn 0.0977 0.3246 0.9408
vn -0.9984 0.0094 -0.0562
vn -0.6136 0.7550 0.2311
vn -0.6193 -0.7288 0.2919
vn 0.0507 -0.4335 0.8997
vn 0.0499 0.5021 0.8633
vn -0.9758 0.2106 -0.0583
vn -0.4248 0.7994 0.4247
vn -0.7843 -0.6024 0.1485
vn -0.0823 -0.6476 0.7575
vn 0.1558 0.2688 0.9505
vn -0.1982 0.9769 -0.0800
vn -0.6850 0.7239 -0.0817
vn -0.9629 0.2578 -0.0794
vn -0.9240 -0.3678 -0.1049
vn -0.4422 -0.8887 -0.1214
vn 0.2361 -0.9658 -0.1073
vn 0.7780 -0.6218 -0.0899
vn 0.9962 0.0111 -0.0862
vn 0.7748 0.6272 -0.0797
vn 0.3173 0.9452 -0.0768
vn 0.1847 -0.0581 0.9811
vn 0.1824 -0.0490 0.9820
vn 0.1921 -0.0423 0.9805
vn 0.1931 -0.0607 0.9793
vn 0.2033 -0.0316 0.9786
vn 0.1813 -0.0660 0.9812
vn 0.1797 -0.0629 0.9817
vn 0.1757 -0.0520 0.9831
vn 0.1693 -0.0421 0.9847
vn 0.1697 -0.0424 0.9846
# 177 vertex normals

vt 0.7726 0.1973 0.0000
vt 0.7612 0.1907 0.0000
vt 0.7763 0.1945 0.0000
vt 0.7789 0.1920 0.0000
vt 0.7436 0.1914 0.0000
vt 0.7475 0.1951 0.0000
vt 0.7513 0.1978 0.0000
vt 0.7563 0.2002 0.0000
vt 0.7612 0.2009 0.0000
vt 0.7645 0.2009 0.0000
vt 0.7661 0.2006 0.0000
vt 0.7677 0.2001 0.0000
vt 0.1221 0.8010 0.0000
vt 0.1192 0.7984 0.0000
vt 0.1202 0.7957 0.0000
vt 0.1243 0.7446 0.0000
vt 0.1262 0.7447 0.0000
vt 0.1265 0.7551 0.0000
vt 0.1240 0.7545 0.0000
vt 0.1214 0.7541 0.0000
vt 0.1220 0.7443 0.0000
vt 0.1266 0.7655 0.0000
vt 0.1236 0.7646 0.0000
vt 0.1382 0.8013 0.0000
vt 0.1379 0.8031 0.0000
vt 0.1365 0.8025 0.0000
vt 0.1359 0.8018 0.0000
vt 0.1317 0.7696 0.0000
vt 0.1306 0.7601 0.0000
vt 0.1301 0.7446 0.0000
vt 0.1323 0.7445 0.0000
vt 0.1330 0.7553 0.0000
vt 0.1350 0.7681 0.0000
vt 0.1371 0.7641 0.0000
vt 0.1390 0.7824 0.0000
vt 0.1317 0.7825 0.0000
vt 0.1432 0.7721 0.0000
vt 0.1411 0.7773 0.0000
vt 0.1277 0.8033 0.0000
vt 0.1263 0.8018 0.0000
vt 0.1299 0.8010 0.0000
vt 0.1285 0.8029 0.0000
vt 0.1249 0.7804 0.0000
vt 0.1215 0.7790 0.0000
vt 0.0388 0.7723 0.0000
vt 0.0327 0.7828 0.0000
vt 0.0306 0.7770 0.0000
vt 0.0358 0.7680 0.0000
vt 0.0513 0.7481 0.0000
vt 0.0535 0.7482 0.0000
vt 0.0540 0.7588 0.0000
vt 0.0514 0.7587 0.0000
vt 0.0485 0.7588 0.0000
vt 0.0493 0.7479 0.0000
vt 0.1204 0.7640 0.0000
vt 0.0515 0.7701 0.0000
vt 0.0548 0.7696 0.0000
vt 0.1180 0.7782 0.0000
vt 0.0566 0.7855 0.0000
vt 0.0525 0.7862 0.0000
vt 0.0393 0.7579 0.0000
vt 0.0416 0.7593 0.0000
vt 0.0470 0.7477 0.0000
vt 0.0453 0.7589 0.0000
vt 0.0430 0.7467 0.0000
vt 0.0453 0.7475 0.0000
vt 0.0482 0.7701 0.0000
vt 0.0328 0.7913 0.0000
vt 0.0392 0.7884 0.0000
vt 0.0442 0.7707 0.0000
vt 0.0487 0.7864 0.0000
vt 0.0444 0.7872 0.0000
vt 0.1162 0.7940 0.0000
vt 0.1134 0.7925 0.0000
vt 0.1290 0.7959 0.0000
vt 0.0534 0.8055 0.0000
vt 0.0500 0.8058 0.0000
vt 0.0475 0.8061 0.0000
vt 0.0458 0.8057 0.0000
vt 0.1400 0.7988 0.0000
vt 0.0383 0.8047 0.0000
vt 0.0357 0.8049 0.0000
vt 0.0324 0.8050 0.0000
vt 0.0290 0.8053 0.0000
vt 0.0262 0.7959 0.0000
vt 0.0565 0.8030 0.0000
vt 0.0605 0.8021 0.0000
vt 0.0265 0.7383 0.0000
vt 0.0314 0.7309 0.0000
vt 0.0414 0.7385 0.0000
vt 0.0376 0.7404 0.0000
vt 0.0221 0.7354 0.0000
vt 0.0275 0.7446 0.0000
vt 0.0238 0.7455 0.0000
vt 0.0312 0.7468 0.0000
vt 0.0296 0.7502 0.0000
vt 0.0371 0.7493 0.0000
vt 0.0348 0.7463 0.0000
vt 0.0632 0.8173 0.0000
vt 0.0610 0.8183 0.0000
vt 0.0587 0.8120 0.0000
vt 0.0606 0.8110 0.0000
vt 0.0655 0.8165 0.0000
vt 0.0630 0.8104 0.0000
vt 0.1071 0.8052 0.0000
vt 0.1049 0.8039 0.0000
vt 0.1084 0.7984 0.0000
vt 0.1109 0.8000 0.0000
vt 0.1093 0.8066 0.0000
vt 0.1138 0.8016 0.0000
vt 0.1156 0.8032 0.0000
vt 0.1114 0.8081 0.0000
vt 0.0491 0.8280 0.0000
vt 0.0461 0.8283 0.0000
vt 0.0471 0.8169 0.0000
vt 0.0497 0.8166 0.0000
vt 0.0513 0.8277 0.0000
vt 0.0528 0.8160 0.0000
vt 0.1164 0.8189 0.0000
vt 0.1182 0.8082 0.0000
vt 0.1211 0.8083 0.0000
vt 0.1194 0.8192 0.0000
vt 0.1245 0.8090 0.0000
vt 0.1222 0.8198 0.0000
vt 0.1262 0.8100 0.0000
vt 0.0400 0.8285 0.0000
vt 0.0365 0.8281 0.0000
vt 0.0377 0.8170 0.0000
vt 0.0411 0.8172 0.0000
vt 0.0433 0.8293 0.0000
vt 0.0443 0.8178 0.0000
vt 0.1326 0.8215 0.0000
vt 0.1295 0.8218 0.0000
vt 0.1281 0.8109 0.0000
vt 0.1314 0.8105 0.0000
vt 0.1358 0.8209 0.0000
vt 0.1348 0.8102 0.0000
vt 0.1380 0.8099 0.0000
vt 0.1388 0.8203 0.0000
vt 0.0323 0.8273 0.0000
vt 0.0290 0.8274 0.0000
vt 0.0293 0.8171 0.0000
vt 0.0328 0.8165 0.0000
vt 0.0356 0.8273 0.0000
vt 0.0364 0.8165 0.0000
vt 0.1499 0.8165 0.0000
vt 0.1473 0.8185 0.0000
vt 0.1403 0.8111 0.0000
vt 0.1434 0.8093 0.0000
vt 0.1526 0.8147 0.0000
vt 0.1463 0.8075 0.0000
vt 0.1490 0.8054 0.0000
vt 0.1551 0.8129 0.0000
vt 0.0269 0.7899 0.0000
vt 0.0264 0.7953 0.0000
vt 0.0175 0.7939 0.0000
vt 0.0164 0.7947 0.0000
vt 0.0274 0.7852 0.0000
vt 0.0148 0.7941 0.0000
vt 0.1540 0.7940 0.0000
vt 0.1519 0.7955 0.0000
vt 0.1428 0.7893 0.0000
vt 0.1445 0.7833 0.0000
vt 0.0563 0.8061 0.0000
vt 0.0417 0.8052 0.0000
vt 0.1437 0.7970 0.0000
vt 0.1460 0.7806 0.0000
vt 0.1558 0.7926 0.0000
vt 0.1475 0.7778 0.0000
vt 0.1577 0.7911 0.0000
vt 0.0258 0.7814 0.0000
vt 0.0130 0.7927 0.0000
vt 0.1415 0.7890 0.0000
vt 0.0655 0.8231 0.0000
vt 0.0632 0.8242 0.0000
vt 0.0676 0.8221 0.0000
vt 0.1044 0.8100 0.0000
vt 0.1023 0.8088 0.0000
vt 0.1061 0.8117 0.0000
vt 0.1080 0.8129 0.0000
vt 0.0493 0.8337 0.0000
vt 0.0466 0.8342 0.0000
vt 0.0515 0.8334 0.0000
vt 0.1185 0.8247 0.0000
vt 0.1158 0.8244 0.0000
vt 0.1213 0.8253 0.0000
vt 0.1249 0.8205 0.0000
vt 0.1241 0.8259 0.0000
vt 0.0393 0.8362 0.0000
vt 0.0365 0.8360 0.0000
vt 0.0422 0.8367 0.0000
vt 0.1334 0.8284 0.0000
vt 0.1306 0.8287 0.0000
vt 0.1364 0.8280 0.0000
vt 0.1393 0.8276 0.0000
vt 0.0325 0.8327 0.0000
vt 0.0295 0.8330 0.0000
vt 0.0354 0.8325 0.0000
vt 0.1527 0.8204 0.0000
vt 0.1505 0.8222 0.0000
vt 0.1554 0.8188 0.0000
vt 0.1580 0.8172 0.0000
vt 0.0156 0.7961 0.0000
vt 0.0150 0.7967 0.0000
vt 0.0125 0.7975 0.0000
vt 0.1569 0.7976 0.0000
vt 0.1541 0.7983 0.0000
vt 0.1590 0.7961 0.0000
vt 0.1603 0.7951 0.0000
vt 0.0102 0.7964 0.0000
vt 0.0702 0.7447 0.0000
vt 0.0718 0.7467 0.0000
vt 0.0736 0.7449 0.0000
vt 0.0722 0.7420 0.0000
vt 0.0681 0.7422 0.0000
vt 0.0519 0.7439 0.0000
vt 0.0540 0.7458 0.0000
vt 0.0561 0.7417 0.0000
vt 0.0565 0.7445 0.0000
vt 0.0530 0.7412 0.0000
vt 0.1081 0.7460 0.0000
vt 0.1109 0.7445 0.0000
vt 0.1060 0.7443 0.0000
vt 0.1101 0.7412 0.0000
vt 0.1087 0.7411 0.0000
vt 0.0862 0.7446 0.0000
vt 0.0891 0.7462 0.0000
vt 0.0917 0.7447 0.0000
vt 0.0912 0.7417 0.0000
vt 0.0883 0.7414 0.0000
vt 0.7805 0.2249 0.0000
vt 0.7862 0.2228 0.0000
vt 0.7912 0.2201 0.0000
vt 0.7350 0.2213 0.0000
vt 0.7409 0.2244 0.0000
vt 0.7468 0.2260 0.0000
vt 0.7538 0.2271 0.0000
vt 0.7604 0.2270 0.0000
vt 0.7655 0.2268 0.0000
vt 0.7693 0.2267 0.0000
vt 0.7737 0.2266 0.0000
vt 0.1192 0.8010 0.0000
vt 0.1183 0.7992 0.0000
# 243 texture coords

g hand_right
usemtl lambert2
s 1
f 1/1/1 2/2/2 3/3/3 
f 3/3/3 2/2/2 4/4/4 
f 4/5/4 2/2/2 5/6/5 
f 5/6/5 2/2/2 6/7/6 
f 6/7/6 2/2/2 7/8/7 
f 7/8/7 2/2/2 8/9/8 
f 8/9/8 2/2/2 9/10/9 
f 9/10/9 2/2/2 10/11/10 
f 10/11/10 2/2/2 11/12/11 
f 11/12/11 2/2/2 1/1/1 
f 12/13/12 13/14/13 14/15/14 
f 15/16/15 16/17/16 17/18/17 18/19/18 
f 15/16/15 18/19/18 19/20/19 20/21/20 
f 18/19/18 17/18/17 21/22/21 22/23/22 
f 23/24/23 24/25/24 25/26/25 26/27/26 
f 27/28/27 21/22/21 17/18/17 28/29/28 
f 28/29/28 17/18/17 16/17/16 29/30/29 
f 30/31/30 31/32/31 28/29/28 29/30/29 
f 32/33/32 28/29/28 31/32/31 33/34/33 
f 32/33/32 34/35/34 35/36/35 27/28/27 
f 36/37/36 37/38/37 32/33/32 33/34/33 
f 27/28/27 28/29/28 32/33/32 
f 38/39/38 39/40/39 40/41/40 41/42/41 
f 21/22/21 27/28/27 35/36/35 42/43/42 
f 43/44/43 22/23/22 21/22/21 42/43/42 
f 44/45/44 45/46/45 36/47/36 33/48/33 
f 46/49/46 20/50/20 19/51/19 47/52/47 
f 46/49/46 47/52/47 48/53/48 49/54/49 
f 50/55/50 19/20/19 18/19/18 22/23/22 
f 51/56/51 47/52/47 19/51/19 50/57/50 
f 22/23/22 43/44/43 52/58/52 50/55/50 
f 51/56/51 50/57/50 52/59/52 53/60/53 
f 44/45/44 33/48/33 31/61/31 54/62/54 
f 55/63/55 49/54/49 48/53/48 56/64/56 
f 54/62/54 31/61/31 30/65/30 57/66/57 
f 55/63/55 56/64/56 54/62/54 57/66/57 
f 58/67/58 48/53/48 47/52/47 51/56/51 
f 59/68/59 45/46/45 44/45/44 60/69/60 
f 61/70/61 44/45/44 54/62/54 56/64/56 
f 61/70/61 56/64/56 48/53/48 58/67/58 
f 58/67/58 51/56/51 53/60/53 62/71/62 
f 58/67/58 62/71/62 63/72/63 61/70/61 
f 63/72/63 60/69/60 44/45/44 61/70/61 
f 52/58/52 43/44/43 64/73/64 65/74/65 
f 35/36/35 66/75/66 14/15/14 42/43/42 
f 39/40/39 12/13/12 14/15/14 66/75/66 
f 67/76/67 68/77/68 62/71/62 53/60/53 
f 38/78/38 41/79/41 63/72/63 
f 40/41/40 39/40/39 66/75/66 
f 26/27/26 69/80/69 23/24/23 
f 25/81/25 24/82/24 59/68/59 60/69/60 
f 70/83/70 71/84/71 72/85/72 59/68/59 
f 59/68/59 24/82/24 70/83/70 
f 52/59/52 73/86/73 67/76/67 53/60/53 
f 73/86/73 52/59/52 65/87/65 
f 63/72/63 62/71/62 68/77/68 38/78/38 
f 74/88/74 75/89/75 76/90/76 77/91/77 
f 75/89/75 74/88/74 78/92/78 
f 78/92/78 74/88/74 79/93/79 80/94/80 
f 80/94/80 79/93/79 81/95/81 82/96/82 
f 77/91/77 76/90/76 83/97/83 84/98/84 
f 84/98/84 83/97/83 82/96/82 81/95/81 
f 85/99/85 86/100/86 87/101/87 88/102/88 
f 89/103/89 85/99/85 88/102/88 90/104/90 
f 91/105/91 89/106/89 90/107/90 92/108/92 
f 93/109/93 91/105/91 92/108/92 94/110/94 
f 94/110/94 87/111/87 86/112/86 93/109/93 
f 95/113/95 96/114/96 97/115/97 98/116/98 
f 99/117/99 95/113/95 98/116/98 100/118/100 
f 99/119/99 100/120/100 101/121/101 102/122/102 
f 102/122/102 101/121/101 103/123/103 104/124/104 
f 38/39/38 97/125/97 103/123/103 39/40/39 
f 105/126/105 106/127/106 107/128/107 108/129/108 
f 109/130/109 105/126/105 108/129/108 110/131/110 
f 111/132/111 109/133/109 110/134/110 112/135/112 
f 113/136/113 111/132/111 112/135/112 114/137/114 
f 114/137/114 107/138/107 106/139/106 113/136/113 
f 115/140/115 116/141/116 117/142/117 118/143/118 
f 119/144/119 115/140/115 118/143/118 120/145/120 
f 121/146/121 119/147/119 120/148/120 122/149/122 
f 123/150/123 121/146/121 122/149/122 124/151/124 
f 124/151/124 117/152/117 116/153/116 123/150/123 
f 125/154/125 126/155/126 127/156/127 128/157/128 
f 129/158/129 125/154/125 128/157/128 130/159/130 
f 131/160/131 127/161/127 126/162/126 132/163/132 
f 65/74/65 64/73/64 92/108/92 90/107/90 
f 94/110/94 92/108/92 64/73/64 14/15/14 
f 13/164/13 73/86/73 88/102/88 87/101/87 
f 87/111/87 94/110/94 14/15/14 13/14/13 
f 112/135/112 110/134/110 41/42/41 40/41/40 
f 41/79/41 110/131/110 108/129/108 133/165/133 
f 70/83/70 24/82/24 120/145/120 118/143/118 
f 71/84/71 70/83/70 118/143/118 117/142/117 
f 117/152/117 124/151/124 69/80/69 71/166/71 
f 122/149/122 120/148/120 24/25/24 23/24/23 
f 23/24/23 69/80/69 124/151/124 122/149/122 
f 26/27/26 25/26/25 107/138/107 114/137/114 
f 114/137/114 112/135/112 40/41/40 26/27/26 
f 34/35/34 37/38/37 134/167/134 132/163/132 
f 132/163/132 134/167/134 135/168/135 131/160/131 
f 135/168/135 134/167/134 136/169/136 137/170/137 
f 136/171/136 129/158/129 130/159/130 137/172/137 
f 72/173/72 34/35/34 132/163/132 126/162/126 
f 59/68/59 72/85/72 126/155/126 125/154/125 
f 45/46/45 59/68/59 125/154/125 129/158/129 
f 129/158/129 136/171/136 36/47/36 45/46/45 
f 73/86/73 65/87/65 90/104/90 88/102/88 
f 108/129/108 107/128/107 25/81/25 133/165/133 
f 138/174/138 139/175/139 86/100/86 85/99/85 
f 140/176/140 138/174/138 85/99/85 89/103/89 
f 141/177/141 140/178/140 89/106/89 91/105/91 
f 142/179/142 141/177/141 91/105/91 93/109/93 
f 93/109/93 86/112/86 139/180/139 142/179/142 
f 143/181/143 144/182/144 96/114/96 95/113/95 
f 145/183/145 143/181/143 95/113/95 99/117/99 
f 146/184/146 145/185/145 99/119/99 102/122/102 
f 147/186/147 146/184/146 102/122/102 104/124/104 
f 104/124/104 96/187/96 144/188/144 147/186/147 
f 148/189/148 149/190/149 106/127/106 105/126/105 
f 150/191/150 148/189/148 105/126/105 109/130/109 
f 151/192/151 150/193/150 109/133/109 111/132/111 
f 152/194/152 151/192/151 111/132/111 113/136/113 
f 113/136/113 106/139/106 149/195/149 152/194/152 
f 153/196/153 154/197/154 116/141/116 115/140/115 
f 155/198/155 153/196/153 115/140/115 119/144/119 
f 156/199/156 155/200/155 119/147/119 121/146/121 
f 157/201/157 156/199/156 121/146/121 123/150/123 
f 123/150/123 116/153/116 154/202/154 157/201/157 
f 128/157/128 127/156/127 75/203/75 78/204/78 
f 130/159/130 128/157/128 78/204/78 80/205/80 
f 76/206/76 75/207/75 127/161/127 131/160/131 
f 83/208/83 76/206/76 131/160/131 135/168/135 
f 83/208/83 135/168/135 137/170/137 82/209/82 
f 137/172/137 130/159/130 80/205/80 82/210/82 
f 139/211/139 138/212/138 140/213/140 
f 141/214/141 142/215/142 140/213/140 
f 142/215/142 139/211/139 140/213/140 
f 144/216/144 143/217/143 146/218/146 
f 143/217/143 145/219/145 146/218/146 
f 147/220/147 144/216/144 146/218/146 
f 148/221/148 150/222/150 149/223/149 
f 150/222/150 151/224/151 149/223/149 
f 151/224/151 152/225/152 149/223/149 
f 154/226/154 153/227/153 155/228/155 
f 156/229/156 157/230/157 155/228/155 
f 157/230/157 154/226/154 155/228/155 
f 77/91/77 84/98/84 74/88/74 
f 84/98/84 81/95/81 74/88/74 
f 81/95/81 79/93/79 74/88/74 
f 35/36/35 34/35/34 69/80/69 66/75/66 
f 72/173/72 71/166/71 69/80/69 34/35/34 
f 64/73/64 43/44/43 42/43/42 14/15/14 
f 133/165/133 25/81/25 60/69/60 
f 41/79/41 133/165/133 60/69/60 63/72/63 
f 158/231/158 1/1/1 3/3/3 159/232/159 
f 159/232/159 3/3/3 4/4/4 160/233/160 
f 160/234/160 4/5/4 5/6/5 161/235/161 
f 5/6/5 6/7/6 162/236/162 161/235/161 
f 6/7/6 7/8/7 163/237/163 162/236/162 
f 7/8/7 8/9/8 164/238/164 163/237/163 
f 8/9/8 9/10/9 165/239/165 164/238/164 
f 165/239/165 9/10/9 10/11/10 166/240/166 
f 166/240/166 10/11/10 11/12/11 167/241/167 
f 167/241/167 11/12/11 1/1/1 158/231/158 
s 2
f 159/232/168 165/239/169 167/241/170 158/231/171 
f 165/239/169 166/240/172 167/241/170 
f 159/232/168 160/233/173 165/239/169 
f 160/233/173 161/235/174 165/239/169 
f 161/235/174 162/236/175 165/239/169 
f 162/236/175 163/237/176 165/239/169 
f 163/237/176 164/238/177 165/239/169 
s 1
f 38/78/38 68/77/68 98/116/98 97/115/97 
f 68/77/68 67/76/67 100/118/100 98/116/98 
f 100/120/100 67/242/67 12/13/12 101/121/101 
f 101/121/101 12/13/12 39/40/39 103/123/103 
f 96/187/96 104/124/104 103/123/103 97/125/97 
f 67/242/67 73/243/73 13/14/13 12/13/12 
f 37/38/37 36/37/36 136/169/136 134/167/134 
f 37/38/37 34/35/34 32/33/32 
f 26/27/26 40/41/40 66/75/66 69/80/69 
# 139 polygons - 41 triangles

